<?xml version="1.0" encoding="UTF-8" standalone="no"?>
<!-- Created with Inkscape (http://www.inkscape.org/) -->

<svg
   width="179.56552mm"
   height="63.040485mm"
   viewBox="0 0 179.56552 63.040485"
   version="1.1"
   id="svg21"
   xml:space="preserve"
   xmlns="http://www.w3.org/2000/svg"
   xmlns:svg="http://www.w3.org/2000/svg"><defs
     id="defs18" /><g
     id="layer1"
     transform="translate(-13.206629,-106.36165)"><g
       id="g172"
       transform="matrix(0.35277778,0,0,0.35277778,-17.663859,23.642666)"><path
         d="m 211.53,235.3082 3.8506,177.2269 c -19.3881,-17.142 -38.7759,-34.284 -58.1641,-51.4259 69.353,-95.7662 199.7655,-110.759 293.3805,-104.6336 -73.8794,4.7934 -220.3903,15.7249 -269.7183,102.3571 l 18.6166,18.3966 -5.5795,-89.1686 L 87.734,401.0683 Z"
         style="fill:#006db2;fill-rule:evenodd;stroke:#006db2;stroke-width:0.5669;stroke-linecap:butt;stroke-linejoin:miter;stroke-dasharray:none"
         id="path148" /><path
         d="m 551.3984,274.3773 c 93.2737,18.9995 20.5645,73.6072 -34.0846,81.6584 166.4654,-59.1009 -22.7007,-117.0518 -221.095,-50.7228 45.4983,-24.2515 161.0798,-50.1035 255.1796,-30.9356 z"
         style="fill:#00870d;fill-rule:evenodd;stroke:#008a10;stroke-width:0.5669;stroke-linecap:butt;stroke-linejoin:miter;stroke-dasharray:none"
         id="path150" /><path
         d="m 433.9003,313.8999 h -14.5821 l -13.6986,32.2126 h -0.1264 l -13.004,-32.2126 h -14.2664 v 4.619 c 2.5251,0.2999 4.2926,0.4198 5.3659,0.4799 v 31.8527 c -1.6414,0.0601 -3.3458,0.2401 -5.2399,0.4198 v 4.619 h 16.3502 v -4.619 c -1.6417,-0.1797 -3.0935,-0.2999 -4.6086,-0.4198 v -28.9732 l 13.0043,34.012 h 4.6083 l 14.1401,-34.012 v 29.0333 c -1.3888,0.0598 -2.7775,0.18 -4.2926,0.3597 v 4.619 h 16.2235 v -4.619 c -1.8307,-0.1797 -3.5352,-0.3597 -5.3026,-0.4198 v -31.8527 c 1.1994,-0.0601 2.9668,-0.2401 5.4289,-0.4799 z"
         style="fill:#008a10;fill-rule:evenodd"
         id="path152" /><path
         d="m 376.2439,313.8999 h -16.5444 v 4.619 c 1.7093,0.18 3.4189,0.36 5.067,0.4198 v 30.1133 c 0,5.3986 -0.9156,7.558 -3.9683,10.8573 -0.9768,1.1999 -1.4652,1.6798 -2.1977,2.4596 l 2.8695,2.7593 c 1.4653,-0.9599 1.9537,-1.1997 4.1514,-2.9994 4.6397,-4.1388 5.7384,-6.4783 5.7384,-13.017 v -30.1731 c 1.6487,-0.0598 3.2358,-0.2398 4.8841,-0.4198 z"
         style="fill:#008a10;fill-rule:evenodd"
         id="path154" /><path
         d="m 333.9266,319.3588 6.2293,18.4757 h -12.5771 l 6.1106,-18.4757 z m 4.8054,-5.4589 -9.2891,-0.0666 -12.0088,36.9581 c -1.7203,0.0601 -3.4408,0.2401 -5.2798,0.4799 v 4.619 h 15.484 v -4.619 c -1.5426,-0.1797 -2.2546,-0.2999 -3.6782,-0.4198 l 2.3136,-7.4982 h 15.2471 l 2.6103,7.4982 c -1.4834,0.1199 -2.7885,0.2401 -4.2716,0.4198 v 4.619 h 16.8486 v -4.619 c -1.78,-0.2398 -3.619,-0.4198 -5.458,-0.4799 z"
         style="fill:#008a10;fill-rule:evenodd"
         id="path156" /><path
         d="m 243.7997,392.9261 c -1.9724,1.1636 -3.962,1.7476 -5.978,1.7476 -2.5963,0 -4.682,-0.8337 -6.2569,-2.501 -1.5798,-1.6674 -2.3692,-3.9099 -2.3692,-6.7184 0,-2.9515 0.8027,-5.2342 2.3998,-6.8568 1.6013,-1.6228 3.7085,-2.4344 6.3269,-2.4344 1.9457,0 3.905,0.4817 5.8774,1.4491 v 4.739 h -2.016 v -3.4328 c -1.1869,-0.5706 -2.5308,-0.856 -4.0275,-0.856 -2.0812,0 -3.6652,0.6332 -4.7514,1.8992 -1.0823,1.2662 -1.628,3.0404 -1.628,5.3186 0,2.3273 0.5848,4.1596 1.7456,5.4924 1.165,1.3332 2.7882,2.0019 4.8693,2.0019 1.7893,0 3.7265,-0.5885 5.808,-1.77 z m 3.5212,-7.5433 c 0,-2.764 0.7633,-4.9932 2.2818,-6.6829 1.5228,-1.6895 3.5606,-2.5368 6.109,-2.5368 2.4868,0 4.4504,0.8116 5.8904,2.4344 1.4442,1.6226 2.1685,3.8027 2.1685,6.5447 0,2.929 -0.7637,5.2472 -2.2864,6.959 -1.5183,1.7164 -3.5212,2.5725 -6.0041,2.5725 -2.4653,0 -4.4374,-0.8382 -5.9253,-2.5189 -1.4879,-1.6807 -2.2339,-3.9365 -2.2339,-6.772 z m 2.1815,-0.1338 c 0,2.2782 0.5369,4.106 1.6146,5.4746 1.0735,1.3688 2.5481,2.0509 4.4286,2.0509 1.9026,0 3.3862,-0.6821 4.4464,-2.0509 1.0647,-1.3686 1.597,-3.1964 1.597,-5.4746 0,-2.1665 -0.5108,-3.9098 -1.5273,-5.2205 -1.021,-1.3108 -2.5132,-1.9661 -4.481,-1.9661 -1.9505,0 -3.4472,0.6332 -4.4986,1.8992 -1.0519,1.2662 -1.5797,3.0271 -1.5797,5.2874 z m 28.3618,5.9695 6.1086,-15.0554 h 4.7999 v 1.8993 h -2.016 v 14.7121 h 2.016 v 1.8992 h -6.0434 v -1.8992 h 2.016 V 379.351 h -0.1355 l -6.209,15.3227 h -1.4443 l -6.1741,-15.3227 h -0.1353 v 13.4235 h 2.016 v 1.8992 h -6.0434 v -1.8992 h 2.016 v -14.7121 h -2.016 v -1.8993 h 5.0703 l 6.0389,15.0554 z m 16.9472,-3.5753 c 0,1.6673 0.4495,2.9557 1.3442,3.8696 0.8943,0.9138 2.103,1.3688 3.6258,1.3688 1.5882,0 2.8363,-0.4728 3.7394,-1.4224 0.9077,-0.9451 1.3615,-2.238 1.3615,-3.8829 v -9.5139 h -2.016 v -1.8993 h 6.0432 v 1.8993 h -2.0157 v 9.4515 c 0,2.1487 -0.633,3.8787 -1.8939,5.1891 -1.2653,1.3153 -3.0064,1.9707 -5.2185,1.9707 -2.1294,0 -3.8223,-0.6151 -5.0877,-1.8502 -1.2654,-1.2305 -1.8938,-2.9336 -1.8938,-5.1046 v -9.6565 h -2.0157 v -1.8993 h 6.0435 v 1.8993 h -2.0163 z m 30.2077,-9.5808 h -2.016 v -1.8993 h 6.0431 v 1.8993 h -2.0157 v 16.6113 h -2.0114 l -9.9355,-14.7923 h -0.1355 v 12.8931 h 2.0163 v 1.8992 h -6.0435 v -1.8992 h 2.016 v -14.7121 h -2.016 v -1.8993 h 4.0272 l 9.9357,14.7612 h 0.1353 z m 6.0386,14.7121 h 2.016 v -14.7121 h -2.016 v -1.8993 h 6.0435 v 1.8993 h -2.016 v 14.7121 h 2.016 v 1.8992 h -6.0435 z m 23.4969,0.1516 c -1.9723,1.1636 -3.9619,1.7476 -5.9779,1.7476 -2.5963,0 -4.682,-0.8337 -6.257,-2.501 -1.5797,-1.6674 -2.3691,-3.9099 -2.3691,-6.7184 0,-2.9515 0.8027,-5.2342 2.3998,-6.8568 1.6013,-1.6228 3.7085,-2.4344 6.3266,-2.4344 1.946,0 3.9053,0.4817 5.8776,1.4491 v 4.739 h -2.016 v -3.4328 c -1.1868,-0.5706 -2.5307,-0.856 -4.0274,-0.856 -2.0812,0 -3.6652,0.6332 -4.7517,1.8992 -1.0823,1.2662 -1.6277,3.0404 -1.6277,5.3186 0,2.3273 0.5848,4.1596 1.7453,5.4924 1.1653,1.3332 2.7884,2.0019 4.8696,2.0019 1.7893,0 3.7265,-0.5885 5.8079,-1.77 z m 6.7105,-0.1516 v 1.8992 h -6.0429 v -1.8992 h 1.8499 l 6.1744,-16.6114 h 2.2468 l 6.0434,16.6114 h 1.8108 v 1.8992 h -6.0389 v -1.8992 h 2.0814 l -1.6146,-4.4405 h -7.1121 l -1.5795,4.4405 z m 3.0198,-14.2039 h -0.131 l -2.8233,7.8645 h 5.7773 z m 24.5046,14.3555 c -1.9723,1.1636 -3.962,1.7476 -5.9777,1.7476 -2.5962,0 -4.682,-0.8337 -6.2572,-2.501 -1.5797,-1.6674 -2.3692,-3.9099 -2.3692,-6.7184 0,-2.9515 0.8028,-5.2342 2.3998,-6.8568 1.6013,-1.6228 3.7089,-2.4344 6.327,-2.4344 1.9459,0 3.905,0.4817 5.8773,1.4491 v 4.739 h -2.0157 v -3.4328 c -1.1869,-0.5706 -2.5308,-0.856 -4.0275,-0.856 -2.0814,0 -3.6652,0.6332 -4.7517,1.8992 -1.0823,1.2662 -1.6276,3.0404 -1.6276,5.3186 0,2.3273 0.5847,4.1596 1.7453,5.4924 1.1653,1.3332 2.7881,2.0019 4.8696,2.0019 1.7889,0 3.7264,-0.5885 5.8076,-1.77 z m 2.6836,-0.1516 h 2.0157 v -14.7121 h -2.0157 v -1.8993 h 6.0432 v 1.8993 h -2.016 v 14.7121 h 2.016 v 1.8992 h -6.0432 z m 8.8925,-7.3917 c 0,-2.764 0.7634,-4.9932 2.2819,-6.6829 1.5228,-1.6895 3.5606,-2.5368 6.109,-2.5368 2.4868,0 4.4504,0.8116 5.8904,2.4344 1.4442,1.6226 2.1685,3.8027 2.1685,6.5447 0,2.929 -0.7637,5.2472 -2.2865,6.959 -1.5185,1.7164 -3.5212,2.5725 -6.004,2.5725 -2.4653,0 -4.4377,-0.8382 -5.9253,-2.5189 -1.4879,-1.6807 -2.234,-3.9365 -2.234,-6.772 z m 2.1816,-0.1338 c 0,2.2782 0.5366,4.106 1.6146,5.4746 1.0732,1.3688 2.5478,2.0509 4.4286,2.0509 1.9023,0 3.3862,-0.6821 4.4461,-2.0509 1.065,-1.3686 1.5973,-3.1964 1.5973,-5.4746 0,-2.1665 -0.5108,-3.9098 -1.5273,-5.2205 -1.021,-1.3108 -2.5132,-1.9661 -4.481,-1.9661 -1.9505,0 -3.4472,0.6332 -4.4989,1.8992 -1.0516,1.2662 -1.5794,3.0271 -1.5794,5.2874 z m 31.2154,-7.1866 h -2.016 v -1.8993 h 6.0434 v 1.8993 h -2.016 v 16.6113 h -2.0114 l -9.9355,-14.7923 h -0.1354 v 12.8931 h 2.0162 v 1.8992 h -6.0434 v -1.8992 h 2.016 v -14.7121 h -2.016 v -1.8993 h 4.0272 l 9.9357,14.7612 h 0.1352 z m 6.0386,0 v -1.8993 h 13.4263 v 5.5015 h -2.016 v -3.6022 h -7.3828 v 5.9652 h 3.3554 v -2.0597 h 2.016 v 6.1878 h -2.016 v -2.2289 h -3.3554 v 6.8477 h 7.3828 v -3.6023 h 2.016 v 5.5015 h -13.4263 v -1.8992 h 2.016 v -14.7121 z m 21.4112,16.6113 c -1.7674,0 -3.5342,-0.379 -5.3016,-1.1413 v -4.3602 h 2.016 v 3.0895 c 1.0253,0.3432 2.2343,0.5128 3.6215,0.5128 1.4094,0 2.5005,-0.2719 3.2726,-0.8204 0.7722,-0.5482 1.1605,-1.2305 1.1605,-2.0506 0,-0.4549 -0.087,-0.8427 -0.2528,-1.1593 -0.1661,-0.3209 -0.432,-0.6064 -0.79,-0.8558 -0.3575,-0.2498 -0.8158,-0.4904 -1.3743,-0.7178 -0.5587,-0.2273 -1.2305,-0.4682 -2.016,-0.718 -0.6718,-0.2273 -1.3481,-0.4813 -2.0287,-0.7531 -0.6809,-0.2767 -1.3093,-0.6064 -1.8808,-0.9944 -0.5715,-0.3878 -1.0298,-0.8737 -1.3745,-1.4579 -0.349,-0.5839 -0.5193,-1.2883 -0.5193,-2.1087 0,-1.489 0.5978,-2.6881 1.7935,-3.6022 1.1956,-0.9139 2.7926,-1.3732 4.7823,-1.3732 1.8368,0 3.5036,0.3924 5.0003,1.1727 v 4.3288 h -2.0115 v -3.0537 c -0.8509,-0.3657 -1.9374,-0.5485 -3.2553,-0.5485 -1.3439,0 -2.3692,0.2809 -3.0716,0.8382 -0.707,0.5573 -1.0559,1.2214 -1.0559,1.9973 0,0.5037 0.0916,0.9184 0.2835,1.2483 0.1919,0.33 0.4759,0.6242 0.8555,0.887 0.3792,0.2631 0.8506,0.504 1.4091,0.718 0.5587,0.2183 1.222,0.4502 1.9811,0.6999 0.6718,0.2273 1.3482,0.4813 2.029,0.7534 0.6852,0.2764 1.3,0.6018 1.8457,0.9808 0.5496,0.3745 0.9904,0.847 1.3263,1.4043 0.3359,0.5618 0.5063,1.2393 0.5063,2.0418 0,1.6004 -0.6154,2.84 -1.8457,3.7227 -1.2305,0.8782 -2.9324,1.3196 -5.1052,1.3196 z m 20.1416,0 c -1.7674,0 -3.5342,-0.379 -5.3016,-1.1413 v -4.3602 h 2.016 v 3.0895 c 1.0253,0.3432 2.234,0.5128 3.6215,0.5128 1.4094,0 2.5002,-0.2719 3.2726,-0.8204 0.7722,-0.5482 1.1605,-1.2305 1.1605,-2.0506 0,-0.4549 -0.087,-0.8427 -0.2528,-1.1593 -0.1661,-0.3209 -0.432,-0.6064 -0.79,-0.8558 -0.3575,-0.2498 -0.8159,-0.4904 -1.3743,-0.7178 -0.5587,-0.2273 -1.2305,-0.4682 -2.016,-0.718 -0.6718,-0.2273 -1.3484,-0.4813 -2.0287,-0.7531 -0.6809,-0.2767 -1.3094,-0.6064 -1.8808,-0.9944 -0.5715,-0.3878 -1.0298,-0.8737 -1.3745,-1.4579 -0.349,-0.5839 -0.5193,-1.2883 -0.5193,-2.1087 0,-1.489 0.5978,-2.6881 1.7931,-3.6022 1.196,-0.9139 2.7927,-1.3732 4.7827,-1.3732 1.8368,0 3.5036,0.3924 5,1.1727 v 4.3288 h -2.0112 v -3.0537 c -0.8509,-0.3657 -1.9375,-0.5485 -3.2553,-0.5485 -1.3439,0 -2.3692,0.2809 -3.0716,0.8382 -0.707,0.5573 -1.0559,1.2214 -1.0559,1.9973 0,0.5037 0.0915,0.9184 0.2834,1.2483 0.1919,0.33 0.4757,0.6242 0.8553,0.887 0.3795,0.2631 0.8509,0.504 1.4093,0.718 0.5587,0.2183 1.2221,0.4502 1.9809,0.6999 0.6721,0.2273 1.3484,0.4813 2.0293,0.7534 0.6849,0.2764 1.3,0.6018 1.8454,0.9808 0.5499,0.3745 0.9904,0.847 1.3266,1.4043 0.3359,0.5618 0.5063,1.2393 0.5063,2.0418 0,1.6004 -0.6155,2.84 -1.846,3.7227 -1.2302,0.8782 -2.9321,1.3196 -5.1049,1.3196 z m 12.824,-1.8992 v 1.8992 h -6.0432 v -1.8992 h 1.8499 l 6.1744,-16.6114 h 2.247 l 6.0432,16.6114 h 1.8108 v 1.8992 h -6.039 v -1.8992 h 2.0815 l -1.6143,-4.4405 h -7.1124 l -1.5795,4.4405 z m 3.0194,-14.2039 h -0.1309 l -2.8231,7.8645 h 5.7773 z m 14.3643,16.1031 c -1.7674,0 -3.5342,-0.379 -5.3016,-1.1413 v -4.3602 h 2.016 v 3.0895 c 1.0253,0.3432 2.2342,0.5128 3.6215,0.5128 1.4094,0 2.5002,-0.2719 3.2726,-0.8204 0.7722,-0.5482 1.1605,-1.2305 1.1605,-2.0506 0,-0.4549 -0.087,-0.8427 -0.2528,-1.1593 -0.1662,-0.3209 -0.432,-0.6064 -0.7901,-0.8558 -0.3574,-0.2498 -0.8158,-0.4904 -1.3742,-0.7178 -0.5587,-0.2273 -1.2305,-0.4682 -2.016,-0.718 -0.6718,-0.2273 -1.3482,-0.4813 -2.0287,-0.7531 -0.6809,-0.2767 -1.3094,-0.6064 -1.8808,-0.9944 -0.5715,-0.3878 -1.0299,-0.8737 -1.3746,-1.4579 -0.3489,-0.5839 -0.5193,-1.2883 -0.5193,-2.1087 0,-1.489 0.5979,-2.6881 1.7935,-3.6022 1.1957,-0.9139 2.7924,-1.3732 4.7823,-1.3732 1.8369,0 3.5037,0.3924 5.0004,1.1727 v 4.3288 h -2.0115 v -3.0537 c -0.851,-0.3657 -1.9375,-0.5485 -3.2553,-0.5485 -1.3439,0 -2.3692,0.2809 -3.0716,0.8382 -0.707,0.5573 -1.0559,1.2214 -1.0559,1.9973 0,0.5037 0.0915,0.9184 0.2834,1.2483 0.1919,0.33 0.476,0.6242 0.8555,0.887 0.3793,0.2631 0.8507,0.504 1.4091,0.718 0.5587,0.2183 1.222,0.4502 1.9812,0.6999 0.6718,0.2273 1.3481,0.4813 2.029,0.7534 0.6851,0.2764 1.3,0.6018 1.8456,0.9808 0.5497,0.3745 0.9905,0.847 1.3264,1.4043 0.3359,0.5618 0.5062,1.2393 0.5062,2.0418 0,1.6004 -0.6154,2.84 -1.8456,3.7227 -1.2305,0.8782 -2.9324,1.3196 -5.1052,1.3196 z"
         style="fill:#006db2;fill-rule:evenodd;stroke:#006db2;stroke-width:0.216;stroke-linecap:butt;stroke-linejoin:miter;stroke-dasharray:none"
         id="path158" /></g></g>
</svg>
